<?xml version="1.0" standalone="no"?>
<!DOCTYPE svg PUBLIC "-//W3C//DTD SVG 20010904//EN"
 "http://www.w3.org/TR/2001/REC-SVG-20010904/DTD/svg10.dtd">
<svg version="1.0" xmlns="http://www.w3.org/2000/svg"
 width="512.000000pt" height="512.000000pt" viewBox="0 0 512.000000 512.000000"
 preserveAspectRatio="xMidYMid meet">

<g transform="translate(0.000000,512.000000) scale(0.100000,-0.100000)"
fill="#000000" stroke="none">
<path d="M1960 4831 l0 -289 -32 -11 c-18 -6 -214 -64 -435 -130 -221 -66
-418 -127 -438 -135 -97 -41 -230 -170 -415 -403 -36 -45 -69 -82 -75 -83 -5
-1 -132 -139 -281 -308 l-271 -307 -7 -664 c-4 -365 -5 -665 -4 -667 4 -3 904
961 975 1044 17 20 34 34 38 30 4 -3 26 -127 50 -275 23 -147 52 -295 64 -327
43 -122 120 -219 294 -372 l67 -59 11 -485 c6 -267 8 -507 4 -535 -12 -90 -42
-156 -225 -498 -100 -187 -180 -340 -178 -342 2 -2 662 -7 1467 -11 l1464 -7
-50 94 c-263 488 -327 611 -346 664 -21 59 -22 70 -20 535 1 261 4 503 8 538
l7 62 111 93 c149 125 214 212 261 350 9 27 35 169 57 315 22 147 43 269 45
271 3 3 10 -2 18 -10 7 -8 219 -239 471 -514 252 -275 473 -516 491 -535 l34
-35 0 676 0 676 -459 509 c-459 510 -488 538 -596 587 -22 10 -226 72 -455
138 -228 66 -423 122 -432 125 -17 5 -18 28 -18 295 l0 289 -600 0 -600 0 0
-289z m1050 -246 l0 -385 75 0 75 0 0 95 c0 52 3 95 6 95 3 0 194 -54 423
-120 321 -93 429 -128 471 -154 42 -26 154 -144 482 -507 l427 -474 0 -470 1
-470 -43 48 c-235 265 -913 991 -918 983 -4 -6 -10 -33 -13 -61 -16 -118 -13
-113 -90 -164 -153 -103 -353 -187 -518 -217 l-91 -17 6 -65 c4 -36 9 -67 12
-70 9 -9 182 27 282 59 50 16 149 59 219 94 70 36 129 64 130 62 6 -7 -68
-447 -82 -487 -35 -96 -102 -178 -240 -291 -127 -105 -129 -107 -136 -155 -4
-27 -10 -274 -14 -549 -5 -439 -4 -509 10 -575 9 -41 16 -78 16 -82 0 -5 -423
-8 -940 -8 -517 0 -940 1 -940 3 0 1 7 36 16 77 14 64 15 129 10 450 -4 206
-9 452 -12 546 l-6 170 -130 114 c-214 187 -232 221 -284 543 -21 125 -35 230
-32 233 4 3 39 -13 80 -35 142 -77 346 -147 485 -166 58 -8 56 -11 67 86 l5
45 -90 17 c-172 33 -363 112 -521 216 l-67 44 -12 89 c-6 48 -15 88 -20 88 -4
0 -205 -213 -446 -472 -241 -260 -455 -491 -475 -513 l-37 -40 -1 455 0 455
261 295 c144 162 290 327 325 365 34 39 108 121 163 184 105 119 166 170 235
195 41 15 812 246 821 246 3 0 5 -40 5 -90 l0 -90 75 0 75 0 0 380 0 380 450
0 450 0 0 -385z m670 -4230 l107 -200 -613 -3 c-338 -1 -890 -1 -1228 0 l-613
3 64 120 c36 66 85 157 109 203 l45 82 1011 -2 1011 -3 107 -200z"/>
<path d="M1510 3910 l0 -70 318 0 c302 0 319 -1 350 -20 21 -13 40 -36 49 -60
l16 -40 69 0 c78 0 79 3 52 82 -21 63 -78 126 -138 154 -50 23 -55 24 -383 24
l-333 0 0 -70z"/>
<path d="M2892 3954 c-76 -38 -127 -108 -147 -201 l-7 -33 76 0 c62 0 76 3 76
15 0 29 30 75 60 90 24 12 83 15 350 15 l320 0 0 70 0 70 -338 0 -338 0 -52
-26z"/>
<path d="M1193 3518 c-50 -61 -52 -58 61 -132 276 -181 595 -273 879 -251 51
3 99 10 107 15 10 6 10 20 0 74 l-12 66 -37 -7 c-64 -13 -272 -6 -356 12 -177
37 -357 114 -515 219 -45 31 -83 56 -84 55 -1 0 -20 -23 -43 -51z"/>
<path d="M3795 3514 c-144 -99 -335 -181 -515 -220 -79 -17 -298 -24 -360 -11
l-36 7 -11 -67 c-7 -37 -10 -69 -8 -71 12 -12 167 -23 255 -19 263 14 507 99
748 260 l102 68 -47 55 c-26 30 -47 54 -47 54 -1 0 -37 -25 -81 -56z"/>
<path d="M2415 2696 c-67 -15 -192 -69 -209 -89 -6 -8 -45 -41 -87 -75 -85
-69 -127 -123 -168 -215 -50 -109 -61 -185 -61 -406 l0 -201 70 0 70 0 0 188
c0 267 22 350 128 484 72 92 193 159 325 180 269 41 536 -143 593 -411 9 -43
14 -131 14 -253 l0 -188 71 0 71 0 -4 233 c-4 208 -7 239 -27 297 -41 116 -81
181 -171 270 -90 90 -156 132 -270 170 -83 28 -258 36 -345 16z"/>
<path d="M2490 1135 l0 -75 70 0 70 0 0 75 0 75 -70 0 -70 0 0 -75z"/>
</g>
</svg>
