<?xml version="1.0" standalone="no"?>
<!DOCTYPE svg PUBLIC "-//W3C//DTD SVG 20010904//EN"
 "http://www.w3.org/TR/2001/REC-SVG-20010904/DTD/svg10.dtd">
<svg version="1.0" xmlns="http://www.w3.org/2000/svg"
 width="512.000000pt" height="512.000000pt" viewBox="0 0 512.000000 512.000000"
 preserveAspectRatio="xMidYMid meet">

<g transform="translate(0.000000,512.000000) scale(0.100000,-0.100000)"
fill="#000000" stroke="none">
<path d="M1960 4832 l0 -287 -432 -129 c-238 -70 -460 -141 -494 -158 -78 -37
-135 -88 -267 -236 l-107 -120 52 -46 c29 -25 56 -46 60 -46 4 0 59 58 123
129 172 192 123 169 735 351 l325 96 3 -88 3 -88 74 0 75 0 0 380 0 380 450 0
450 0 0 -390 0 -390 75 0 74 0 3 99 3 99 420 -122 c262 -75 437 -131 465 -148
59 -35 83 -60 534 -563 l386 -430 0 -457 c0 -252 -2 -458 -4 -458 -2 0 -219
235 -482 521 l-479 522 -15 -98 c-17 -112 -19 -114 -156 -195 -151 -89 -398
-180 -493 -180 -45 0 -50 -9 -42 -82 4 -37 9 -69 11 -71 3 -2 43 2 90 10 121
20 307 85 429 148 57 30 106 53 108 51 3 -2 -9 -97 -27 -210 -51 -337 -68
-370 -295 -559 -66 -55 -123 -107 -127 -117 -4 -10 -8 -56 -9 -102 l-2 -83 74
0 74 0 3 61 3 61 82 66 c163 128 260 256 300 392 8 28 32 166 53 308 21 141
41 257 44 257 5 0 934 -1005 987 -1069 l22 -26 0 685 0 685 -400 445 c-220
245 -431 477 -470 517 -114 118 -144 130 -961 362 l-128 36 0 288 0 287 -600
0 -600 0 0 -288z"/>
<path d="M1500 3916 l0 -75 329 -3 330 -3 31 -30 c17 -16 34 -43 38 -60 8 -30
9 -30 80 -33 l72 -3 0 36 c0 81 -62 170 -148 212 l-57 28 -337 3 -338 3 0 -75z"/>
<path d="M2929 3974 c-55 -17 -133 -82 -160 -135 -10 -21 -22 -59 -26 -84 l-6
-45 77 0 c66 0 76 2 76 18 0 31 40 83 75 98 27 11 97 14 345 14 l310 0 0 75 0
75 -322 -1 c-249 0 -334 -4 -369 -15z"/>
<path d="M276 3468 l-276 -312 0 -670 c1 -530 3 -668 13 -655 41 53 1002 1079
1004 1072 1 -4 21 -125 44 -268 22 -143 50 -287 61 -320 42 -128 109 -217 263
-351 l100 -87 5 -236 c3 -130 5 -237 4 -239 -1 -2 -135 98 -298 222 -162 124
-298 226 -301 226 -3 0 -5 -67 -5 -150 l0 -150 -302 -2 -303 -3 -3 -257 -2
-258 302 -2 303 -3 3 -143 c1 -78 5 -142 8 -142 3 0 138 101 300 225 162 124
297 225 300 225 3 0 4 -89 2 -198 -3 -158 -7 -207 -22 -246 -9 -26 -100 -203
-202 -391 -101 -189 -184 -346 -184 -349 0 -3 662 -6 1470 -6 809 0 1470 2
1470 5 0 3 -83 160 -184 349 -102 189 -193 366 -202 393 -13 36 -19 87 -22
203 -2 85 -2 174 0 198 l3 43 300 -229 300 -229 3 149 3 148 304 0 305 0 -2
258 -3 257 -302 3 -303 2 0 150 c0 83 -3 150 -7 150 -5 0 -141 -102 -303 -226
l-295 -225 -3 105 -3 106 -74 0 -75 0 0 -392 c0 -295 4 -407 14 -450 l13 -58
-937 0 -937 0 14 63 c13 53 14 145 9 612 l-7 550 -47 45 c-27 25 -92 85 -147
135 -156 142 -180 193 -225 473 -16 103 -32 201 -35 219 l-6 32 117 -59 c64
-32 166 -75 227 -94 115 -37 267 -68 279 -57 3 3 9 36 13 72 8 76 16 69 -100
90 -88 15 -247 70 -339 116 -56 28 -224 129 -227 136 0 1 -8 46 -17 100 l-17
98 -468 -504 c-257 -278 -474 -511 -482 -517 -13 -11 -15 44 -15 434 l0 446
237 267 c130 148 247 280 260 294 l24 27 -48 46 c-26 25 -53 46 -59 46 -6 0
-136 -140 -288 -312z m942 -2049 c84 -65 154 -120 155 -123 1 -3 -72 -62 -163
-132 l-165 -126 -5 68 -5 69 -303 3 -303 2 3 108 3 107 303 3 302 2 0 76 c0
56 3 73 12 68 7 -4 81 -60 166 -125z m2862 56 l0 -75 303 -2 302 -3 3 -107 3
-108 -306 0 -305 0 0 -70 c0 -38 -2 -70 -5 -70 -12 0 -335 253 -330 259 15 15
321 249 328 250 4 1 7 -33 7 -74z m-407 -1115 c59 -110 107 -202 107 -205 0
-3 -549 -5 -1220 -5 -671 0 -1220 3 -1220 6 0 3 48 95 108 205 l107 199 1005
0 1005 0 108 -200z"/>
<path d="M1186 3516 l-47 -55 78 -55 c109 -77 289 -167 419 -209 168 -55 280
-70 456 -65 82 3 153 9 157 14 5 5 4 38 -3 74 l-12 65 -145 -3 c-161 -4 -263
10 -394 54 -114 37 -275 115 -370 179 -45 30 -84 55 -87 55 -3 0 -27 -25 -52
-54z"/>
<path d="M3785 3513 c-233 -160 -497 -240 -767 -231 -155 6 -140 14 -154 -89
l-6 -51 78 -7 c260 -25 540 33 782 162 78 42 224 136 240 156 9 10 1 25 -34
65 -25 29 -49 52 -52 51 -4 0 -43 -25 -87 -56z"/>
<path d="M2398 2695 c-62 -16 -188 -70 -188 -81 0 -9 70 -124 76 -124 3 0 24
10 47 22 66 33 135 48 228 48 237 0 433 -147 504 -380 12 -40 18 -110 22 -263
l6 -208 71 3 71 3 3 135 c7 339 -43 505 -203 665 -81 80 -151 125 -257 163
-62 22 -93 26 -198 29 -83 1 -144 -2 -182 -12z"/>
<path d="M2025 2449 c-61 -83 -90 -141 -115 -230 -17 -64 -20 -103 -20 -292
l0 -218 73 3 72 3 5 225 c7 268 15 297 125 445 14 20 12 24 -39 74 l-54 54
-47 -64z"/>
<path d="M2490 1135 l0 -76 73 3 72 3 3 73 3 72 -76 0 -75 0 0 -75z"/>
</g>
</svg>
