<?xml version="1.0" standalone="no"?>
<!DOCTYPE svg PUBLIC "-//W3C//DTD SVG 20010904//EN"
 "http://www.w3.org/TR/2001/REC-SVG-20010904/DTD/svg10.dtd">
<svg version="1.0" xmlns="http://www.w3.org/2000/svg"
 width="512.000000pt" height="512.000000pt" viewBox="0 0 512.000000 512.000000"
 preserveAspectRatio="xMidYMid meet">

<g transform="translate(0.000000,512.000000) scale(0.100000,-0.100000)"
fill="#000000" stroke="none">
<path d="M675 4905 c-146 -104 -276 -254 -358 -412 -38 -73 -147 -366 -147
-393 0 -5 33 -19 73 -33 l74 -25 27 87 c46 144 96 262 145 345 56 94 168 217
262 287 38 29 69 53 69 55 0 12 -77 124 -85 124 -6 0 -33 -16 -60 -35z"/>
<path d="M4337 4880 c-20 -33 -37 -62 -37 -64 0 -2 24 -21 53 -42 75 -54 171
-149 227 -224 68 -92 117 -192 175 -362 l50 -146 69 24 c38 13 71 26 74 28 9
10 -94 296 -139 386 -57 112 -156 247 -236 320 -70 65 -171 140 -187 140 -6 0
-28 -27 -49 -60z"/>
<path d="M706 4079 c-32 -5 -60 -10 -62 -12 -2 -2 12 -129 32 -283 20 -164 32
-295 29 -319 -4 -22 -42 -114 -85 -205 -107 -224 -121 -315 -73 -466 l16 -52
-196 -224 -197 -223 58 -52 c31 -29 60 -51 63 -50 3 1 86 93 183 205 98 111
181 202 185 202 10 0 91 -63 91 -70 0 -4 -42 -98 -94 -211 -142 -311 -164
-390 -173 -625 -9 -255 21 -431 108 -614 l40 -85 -71 -390 c-38 -215 -72 -400
-75 -411 -4 -19 2 -22 71 -34 42 -6 78 -10 80 -7 2 2 29 141 59 308 30 167 58
315 60 327 6 23 8 21 47 -23 109 -124 348 -268 530 -320 161 -45 194 -46 1278
-42 944 3 1031 4 1100 21 227 54 417 156 572 307 69 67 79 73 83 55 3 -12 30
-158 60 -325 30 -167 57 -306 60 -309 2 -3 38 1 80 8 68 12 74 15 70 34 -3 11
-37 196 -75 411 l-71 390 40 85 c78 167 111 327 111 545 0 254 -32 381 -176
694 -52 113 -94 207 -94 211 0 7 81 70 91 70 4 0 87 -91 185 -202 97 -112 180
-204 183 -205 3 -1 32 21 63 50 l58 52 -197 223 -196 224 16 52 c48 152 33
246 -73 466 -55 112 -81 177 -85 213 -4 34 7 148 29 322 19 148 33 271 32 272
-5 5 -149 23 -153 19 -2 -2 -20 -131 -40 -287 -45 -366 -45 -366 70 -604 l82
-170 -1 -80 c0 -97 -25 -157 -94 -226 -87 -87 -225 -113 -341 -65 -148 60
-460 257 -649 408 -58 47 -175 146 -260 222 l-155 137 -52 -58 c-29 -32 -51
-61 -50 -64 1 -4 83 -77 182 -164 291 -254 506 -408 784 -562 152 -83 221
-105 331 -102 l85 2 103 -222 c133 -286 153 -357 159 -581 4 -125 1 -187 -11
-258 -76 -436 -399 -761 -831 -837 -130 -22 -2019 -23 -2149 0 -373 65 -677
326 -795 682 -40 120 -54 235 -48 413 6 224 26 295 159 581 l103 222 85 -2
c106 -2 164 14 297 85 219 116 435 259 618 409 130 107 379 324 382 333 1 4
-21 33 -50 64 l-52 58 -165 -146 c-91 -80 -214 -184 -275 -231 -192 -150 -481
-331 -624 -389 -118 -49 -254 -22 -344 68 -68 68 -91 124 -92 223 l0 80 82
170 c115 238 115 234 69 597 -20 157 -36 289 -36 292 0 7 -16 6 -94 -5z"/>
<path d="M1120 3280 l0 -80 80 0 80 0 0 80 0 80 -80 0 -80 0 0 -80z"/>
<path d="M3840 3280 l0 -80 80 0 80 0 0 80 0 80 -80 0 -80 0 0 -80z"/>
<path d="M2480 1040 l0 -80 80 0 80 0 0 80 0 80 -80 0 -80 0 0 -80z"/>
</g>
</svg>
