<?xml version="1.0" standalone="no"?>
<!DOCTYPE svg PUBLIC "-//W3C//DTD SVG 20010904//EN"
 "http://www.w3.org/TR/2001/REC-SVG-20010904/DTD/svg10.dtd">
<svg version="1.0" xmlns="http://www.w3.org/2000/svg"
 width="512.000000pt" height="512.000000pt" viewBox="0 0 512.000000 512.000000"
 preserveAspectRatio="xMidYMid meet">

<g transform="translate(0.000000,512.000000) scale(0.100000,-0.100000)"
fill="#000000" stroke="none">
<path d="M2448 5030 c-322 -51 -597 -288 -707 -609 -41 -120 -54 -200 -54
-341 0 -189 42 -355 128 -501 19 -33 35 -61 35 -63 0 -2 -35 -6 -77 -9 -308
-24 -644 -150 -916 -344 -94 -68 -273 -236 -351 -332 -204 -251 -335 -539
-398 -878 -20 -108 -22 -150 -22 -498 0 -399 10 -545 55 -810 50 -296 73 -358
166 -446 96 -91 225 -131 349 -110 139 25 246 105 311 235 19 39 36 72 38 74
1 1 36 -13 77 -32 95 -43 210 -80 324 -103 83 -17 167 -18 1154 -18 987 0
1071 1 1154 18 114 23 229 60 324 103 41 19 76 33 77 32 2 -2 19 -35 38 -74
131 -261 453 -321 662 -123 75 71 107 142 139 304 65 339 80 522 80 960 0 393
-5 449 -64 670 -66 248 -192 495 -356 696 -82 101 -258 266 -364 342 -122 86
-354 203 -497 250 -126 41 -291 75 -405 84 -43 3 -78 7 -78 9 0 2 14 27 31 56
129 218 168 510 104 764 -86 334 -349 606 -657 679 -81 19 -228 26 -300 15z
m317 -184 c294 -100 493 -379 512 -716 20 -371 -184 -699 -506 -814 -79 -28
-97 -31 -211 -31 -111 1 -134 4 -205 28 -240 84 -410 274 -487 544 -32 112
-32 334 0 446 70 243 229 437 428 522 148 63 323 71 469 21z m-723 -1536 c83
-67 215 -134 318 -161 109 -29 281 -31 385 -5 97 25 258 104 334 167 l65 52
125 -6 c496 -24 964 -277 1273 -687 94 -125 209 -348 256 -496 67 -210 74
-264 79 -644 6 -441 -10 -656 -73 -984 -29 -150 -47 -189 -108 -243 -50 -44
-101 -63 -168 -63 -107 0 -188 56 -248 172 l-34 66 84 89 c100 105 142 172
181 287 93 269 43 535 -147 774 l-65 83 11 61 c30 164 -37 348 -173 476 l-57
53 0 170 0 169 -79 0 -80 0 -3 -202 c-3 -190 -4 -206 -27 -248 -32 -62 -96
-127 -156 -158 -153 -79 -544 -10 -808 144 -43 24 -82 42 -86 40 -5 -3 -24
-33 -44 -66 l-36 -59 81 -46 c205 -115 393 -174 625 -196 148 -14 231 -4 329
41 75 34 173 122 214 193 l27 48 33 -38 c138 -156 112 -414 -54 -545 -67 -53
-232 -132 -336 -160 l-85 -23 -1035 0 -1035 0 -85 23 c-47 12 -136 48 -198 79
-133 65 -203 127 -248 218 -26 54 -29 70 -29 160 0 87 3 107 26 155 14 31 41
73 59 93 l33 38 27 -48 c41 -71 139 -159 214 -193 99 -45 180 -55 332 -41 221
21 420 83 616 193 l87 49 -36 60 c-20 32 -39 62 -44 65 -4 2 -43 -16 -86 -40
-264 -154 -655 -223 -808 -144 -60 31 -124 96 -156 158 -23 42 -24 58 -27 248
l-3 202 -80 0 -79 0 0 -168 0 -168 -73 -74 c-125 -128 -181 -283 -159 -444
l10 -79 -65 -81 c-186 -233 -236 -505 -144 -773 40 -116 82 -183 181 -286 l84
-89 -34 -66 c-19 -36 -52 -83 -73 -103 -63 -62 -167 -85 -259 -57 -49 14 -123
78 -148 127 -33 66 -88 386 -110 646 -16 195 -13 738 6 862 58 394 228 721
520 1003 301 289 716 465 1111 469 l93 1 62 -50z m-1018 -1897 c141 -104 353
-182 551 -203 67 -8 418 -10 1055 -7 869 3 962 5 1030 21 232 54 440 163 531
278 l38 48 39 -52 c98 -131 138 -261 129 -421 -16 -293 -199 -501 -542 -616
-185 -62 -167 -61 -1295 -61 -1128 0 -1110 -1 -1295 61 -114 38 -248 109 -319
168 -145 120 -226 293 -226 480 0 143 43 271 132 389 l39 53 36 -46 c19 -26
63 -67 97 -92z"/>
</g>
</svg>
