<?xml version="1.0" standalone="no"?>
<!DOCTYPE svg PUBLIC "-//W3C//DTD SVG 20010904//EN"
 "http://www.w3.org/TR/2001/REC-SVG-20010904/DTD/svg10.dtd">
<svg version="1.0" xmlns="http://www.w3.org/2000/svg"
 width="512.000000pt" height="512.000000pt" viewBox="0 0 512.000000 512.000000"
 preserveAspectRatio="xMidYMid meet">

<g transform="translate(0.000000,512.000000) scale(0.100000,-0.100000)"
fill="#000000" stroke="none">
<path d="M2461 5030 c-539 -74 -888 -645 -741 -1215 17 -66 43 -127 128 -295
1 -3 -44 -11 -101 -17 -439 -49 -834 -244 -1139 -560 -225 -235 -389 -529
-467 -841 -49 -195 -56 -277 -55 -652 2 -372 14 -547 55 -800 47 -283 73 -354
161 -443 204 -206 537 -143 670 127 18 36 36 66 40 66 5 0 34 -13 66 -29 82
-41 221 -86 337 -107 94 -18 166 -19 1145 -19 979 0 1051 1 1145 19 116 21
255 66 337 107 32 16 61 29 66 29 4 0 22 -30 40 -66 110 -222 352 -309 569
-203 70 34 148 113 182 183 68 147 126 576 137 1032 7 302 -5 504 -41 680
-162 790 -817 1387 -1622 1477 -57 6 -102 14 -101 17 121 240 143 306 158 474
36 407 -176 797 -523 961 -134 64 -309 93 -446 75z m319 -174 c36 -12 92 -40
124 -62 33 -21 73 -47 90 -57 47 -29 75 -58 104 -107 14 -25 42 -70 62 -100
53 -81 95 -200 115 -326 15 -96 16 -124 5 -200 -7 -49 -16 -117 -20 -151 -10
-77 -78 -221 -135 -283 -22 -25 -53 -64 -68 -87 -46 -72 -262 -184 -401 -207
-49 -9 -93 -13 -98 -10 -4 3 -57 9 -116 13 -152 12 -209 42 -363 192 -109 107
-149 159 -149 192 0 8 -10 34 -23 58 -52 98 -68 178 -69 352 -2 157 -1 165 31
266 42 130 120 251 240 372 94 94 124 110 290 154 111 29 280 25 381 -9z
m-728 -1551 c152 -119 318 -177 508 -177 191 0 356 58 510 178 l72 57 132 -6
c686 -33 1301 -505 1520 -1167 78 -236 81 -263 81 -755 0 -398 -3 -456 -23
-601 -23 -174 -64 -393 -80 -434 -55 -138 -225 -202 -360 -134 -62 31 -92 65
-137 153 l-33 67 55 49 c107 94 197 242 234 384 15 55 20 108 20 191 0 196
-51 341 -181 508 l-70 91 10 73 c23 163 -33 322 -158 447 l-74 75 2 168 1 168
-80 0 -80 0 -3 -202 c-3 -192 -4 -206 -27 -253 -32 -63 -93 -124 -156 -156
-41 -20 -68 -25 -152 -27 -223 -8 -496 69 -695 194 -21 13 -40 24 -42 24 -3 0
-21 -27 -41 -60 -28 -46 -34 -64 -26 -74 23 -27 235 -128 348 -165 223 -73
480 -96 610 -53 112 36 217 121 274 220 13 23 27 42 31 42 15 0 81 -104 100
-157 16 -46 19 -75 16 -143 -9 -184 -111 -302 -343 -396 -185 -76 -151 -74
-1255 -74 -1097 0 -1068 -1 -1245 69 -238 95 -344 216 -353 401 -3 68 0 97 16
143 19 53 85 157 100 157 4 0 18 -19 31 -42 57 -99 162 -184 274 -220 130 -43
387 -20 610 53 113 37 325 138 348 165 8 10 2 28 -26 74 -20 33 -38 60 -41 60
-2 0 -21 -11 -42 -24 -199 -125 -472 -202 -695 -194 -84 2 -111 7 -152 27 -63
32 -124 93 -156 156 -23 47 -24 61 -27 253 l-3 202 -80 0 -80 0 1 -168 2 -168
-75 -75 c-123 -124 -180 -284 -157 -447 l10 -73 -70 -91 c-130 -167 -181 -312
-181 -508 -1 -228 85 -422 254 -577 l55 -50 -38 -73 c-48 -89 -69 -113 -134
-145 -133 -67 -303 -3 -358 135 -16 41 -57 260 -80 434 -20 145 -23 203 -23
601 0 423 1 444 23 545 117 532 439 958 905 1196 168 86 354 142 587 177 14 3
69 5 123 6 l98 1 71 -55z m-1085 -1838 c126 -129 372 -232 614 -257 136 -14
1822 -14 1958 0 275 29 541 152 662 309 l27 34 41 -52 c85 -109 131 -244 131
-387 0 -154 -43 -279 -136 -397 -107 -137 -346 -260 -582 -302 -74 -13 -241
-15 -1123 -15 -1132 0 -1116 -1 -1289 58 -367 126 -549 342 -550 656 0 143 46
278 132 387 39 49 42 51 55 33 7 -10 35 -41 60 -67z"/>
</g>
</svg>
