<?xml version="1.0" standalone="no"?>
<!DOCTYPE svg PUBLIC "-//W3C//DTD SVG 20010904//EN"
 "http://www.w3.org/TR/2001/REC-SVG-20010904/DTD/svg10.dtd">
<svg version="1.0" xmlns="http://www.w3.org/2000/svg"
 width="512.000000pt" height="512.000000pt" viewBox="0 0 512.000000 512.000000"
 preserveAspectRatio="xMidYMid meet">

<g transform="translate(0.000000,512.000000) scale(0.100000,-0.100000)"
fill="#000000" stroke="none">
<path d="M1112 5054 c-27 -19 -28 -50 -7 -224 19 -158 37 -275 81 -520 87
-490 98 -717 50 -960 -56 -276 -102 -449 -235 -890 -74 -243 -127 -465 -180
-750 -71 -382 -173 -1038 -232 -1487 -22 -168 -23 -172 -4 -192 25 -28 71 -27
89 1 8 13 29 139 50 293 91 675 242 1561 304 1788 7 27 9 26 92 -70 125 -144
479 -496 600 -597 187 -156 375 -269 495 -297 28 -6 56 -13 64 -16 11 -3 12
-33 6 -176 -7 -170 -7 -173 -50 -287 -60 -161 -114 -282 -203 -452 -75 -144
-77 -148 -62 -175 19 -35 68 -43 92 -16 9 10 60 103 112 207 58 115 96 180 96
165 1 -13 5 -98 10 -188 10 -179 18 -201 71 -201 52 0 58 25 50 200 -10 196 5
942 21 990 102 323 790 970 1222 1149 39 16 87 32 107 36 l35 7 37 -80 c108
-237 156 -563 127 -872 -12 -141 -35 -290 -145 -973 -62 -381 -65 -410 -50
-433 19 -29 64 -32 88 -6 10 11 25 76 42 182 14 91 55 343 90 560 103 636 119
803 96 1035 -24 250 -73 423 -181 643 -110 226 -198 362 -465 722 -177 239
-223 306 -258 376 -55 109 -72 307 -42 502 17 118 43 230 134 601 87 351 90
372 62 400 -27 27 -44 27 -74 -1 -19 -18 -30 -48 -47 -128 -12 -58 -53 -229
-90 -380 -93 -375 -111 -470 -117 -636 -8 -213 19 -337 105 -481 26 -43 124
-182 218 -308 222 -300 218 -294 202 -299 -7 -2 -53 -14 -103 -26 -127 -32
-294 -93 -570 -211 -531 -225 -690 -267 -969 -256 -159 6 -298 36 -467 103
-93 36 -223 98 -245 115 -8 7 -4 35 18 102 46 147 124 457 164 652 60 294 53
490 -37 1005 -48 275 -85 527 -95 638 -10 117 -44 157 -102 116z m2553 -2441
c32 -54 60 -101 62 -105 2 -3 -20 -13 -49 -22 -134 -39 -380 -185 -596 -353
-342 -267 -650 -609 -747 -828 l-25 -56 -38 6 c-98 17 -292 133 -478 287 -127
106 -435 413 -597 596 l-126 142 15 48 c8 26 17 60 21 75 3 15 8 26 12 24 126
-70 325 -147 482 -187 103 -27 149 -33 275 -37 292 -10 479 38 989 255 286
121 442 179 590 217 72 19 135 34 140 35 6 0 37 -44 70 -97z"/>
<path d="M3782 4436 c-13 -7 -42 -46 -65 -87 -39 -68 -49 -78 -115 -116 -83
-46 -101 -66 -102 -106 0 -35 41 -76 120 -121 44 -25 62 -44 95 -100 52 -89
82 -113 127 -100 32 9 41 20 115 139 10 16 32 38 48 48 108 67 129 84 138 109
11 36 -9 77 -51 103 -113 69 -127 81 -160 140 -53 98 -94 122 -150 91z m107
-239 c14 -16 43 -38 63 -49 l37 -21 -42 -27 c-47 -31 -76 -60 -104 -107 l-19
-32 -35 52 c-19 29 -55 66 -81 83 l-48 31 50 32 c28 18 63 53 81 81 l32 50 20
-33 c10 -17 31 -45 46 -60z"/>
<path d="M1940 3410 c-15 -15 -20 -33 -20 -78 0 -66 18 -92 62 -92 40 0 58 29
58 93 0 62 -22 97 -60 97 -11 0 -29 -9 -40 -20z"/>
<path d="M570 3023 c-12 -16 -34 -49 -50 -75 -20 -33 -43 -54 -77 -72 -61 -31
-86 -59 -86 -96 0 -37 25 -65 86 -96 34 -18 57 -39 77 -72 53 -87 69 -102 106
-102 39 0 59 17 108 94 21 34 50 61 91 85 102 61 102 121 0 182 -41 24 -70 51
-91 85 -49 77 -69 94 -108 94 -26 0 -40 -7 -56 -27z m106 -295 l-52 -53 -20
30 c-10 16 -34 39 -51 50 -18 11 -32 22 -32 25 0 3 14 14 32 25 17 11 41 34
51 50 l20 30 52 -52 53 -53 -53 -52z"/>
</g>
</svg>
