<?xml version="1.0" standalone="no"?>
<!DOCTYPE svg PUBLIC "-//W3C//DTD SVG 20010904//EN"
 "http://www.w3.org/TR/2001/REC-SVG-20010904/DTD/svg10.dtd">
<svg version="1.0" xmlns="http://www.w3.org/2000/svg"
 width="512.000000pt" height="512.000000pt" viewBox="0 0 512.000000 512.000000"
 preserveAspectRatio="xMidYMid meet">

<g transform="translate(0.000000,512.000000) scale(0.100000,-0.100000)"
fill="#000000" stroke="none">
<path d="M610 5027 c-49 -25 -52 -42 -46 -312 4 -207 8 -264 25 -333 44 -178
140 -344 262 -455 l70 -64 -49 -66 c-99 -131 -145 -267 -144 -432 1 -119 18
-192 71 -299 l39 -80 -32 -40 c-89 -111 -209 -312 -276 -465 -116 -264 -180
-527 -199 -809 l-8 -127 -56 -115 c-148 -302 -191 -548 -185 -1047 3 -247 3
-253 26 -275 l23 -23 2429 0 2429 0 23 23 c23 22 23 28 26 270 6 503 -37 749
-185 1052 l-56 115 -8 127 c-18 276 -79 528 -190 786 -72 168 -190 370 -285
488 l-32 40 39 80 c53 107 70 180 71 299 1 165 -47 307 -149 439 l-45 58 71
65 c124 113 218 278 263 460 19 78 21 118 22 345 1 255 1 258 -22 280 l-23 23
-1937 2 c-1541 2 -1942 0 -1962 -10z m3788 -369 c-4 -218 -5 -225 -35 -310
-88 -252 -275 -427 -527 -490 -66 -17 -102 -20 -201 -16 -107 4 -132 9 -225
42 -405 145 -499 170 -719 185 -157 11 -351 0 -495 -30 -93 -19 -214 -57 -486
-154 -91 -33 -120 -39 -217 -43 -174 -7 -296 25 -437 115 -135 87 -241 225
-300 391 -30 85 -30 91 -34 310 l-4 222 1842 0 1842 0 -4 -222z m-1596 -753
c143 -21 242 -49 438 -121 219 -82 284 -96 430 -96 126 0 266 29 351 72 l43
23 29 -34 c102 -120 147 -236 147 -378 0 -101 -17 -167 -67 -264 -94 -179
-330 -307 -565 -307 l-88 0 0 -80 0 -80 33 0 c75 1 226 22 291 41 109 32 233
98 298 157 15 13 33 22 41 19 24 -9 160 -221 220 -342 45 -90 107 -230 107
-241 0 -1 -41 -35 -92 -75 -51 -40 -101 -83 -113 -96 -11 -13 -64 -54 -117
-91 -109 -76 -324 -235 -380 -282 -37 -32 -287 -160 -389 -201 -173 -68 -342
-117 -484 -140 -128 -20 -185 -24 -385 -24 -239 1 -310 8 -495 51 -169 40
-390 121 -540 199 -106 55 -318 195 -392 258 -28 24 -72 56 -97 71 -25 14 -49
32 -53 39 -4 7 -88 75 -186 150 -97 76 -177 139 -177 141 0 11 61 150 107 241
59 119 196 333 219 342 7 3 32 -11 55 -31 55 -47 196 -119 285 -145 65 -19
216 -40 292 -41 l32 0 0 80 0 80 -88 0 c-178 0 -347 67 -468 185 -113 110
-164 231 -164 386 0 142 45 258 147 378 l29 34 43 -23 c85 -43 225 -72 351
-72 146 0 211 14 430 96 288 106 423 134 670 135 90 1 196 -5 252 -14z m-1940
-2022 c321 -250 436 -329 604 -414 350 -177 698 -260 1094 -260 345 0 639 59
950 193 240 103 364 182 749 481 161 126 297 225 302 220 19 -19 79 -382 79
-481 l0 -29 -94 -7 c-201 -14 -423 -67 -631 -153 -143 -58 -145 -59 -797 -450
l-558 -334 -557 334 c-653 391 -655 392 -798 450 -208 86 -430 139 -631 153
l-94 7 0 36 c0 116 65 481 85 481 2 0 136 -102 297 -227z m-204 -458 c202 -29
388 -83 564 -164 48 -22 350 -198 672 -391 l586 -351 0 -139 0 -140 -1121 0
-1121 0 5 323 c4 281 7 334 25 415 29 126 75 259 127 370 l44 92 58 0 c32 0
104 -7 161 -15z m4053 -47 c74 -146 136 -347 158 -511 6 -43 11 -202 11 -353
l0 -274 -1120 0 -1120 0 0 140 0 139 586 351 c322 193 624 369 672 391 222
102 513 175 714 178 l68 1 31 -62z"/>
<path d="M2480 2160 l0 -80 80 0 80 0 0 80 0 80 -80 0 -80 0 0 -80z"/>
</g>
</svg>
