<?xml version="1.0" standalone="no"?>
<!DOCTYPE svg PUBLIC "-//W3C//DTD SVG 20010904//EN"
 "http://www.w3.org/TR/2001/REC-SVG-20010904/DTD/svg10.dtd">
<svg version="1.0" xmlns="http://www.w3.org/2000/svg"
 width="512.000000pt" height="512.000000pt" viewBox="0 0 512.000000 512.000000"
 preserveAspectRatio="xMidYMid meet">

<g transform="translate(0.000000,512.000000) scale(0.100000,-0.100000)"
fill="#000000" stroke="none">
<path d="M584 5015 l-26 -26 4 -272 c4 -236 8 -282 26 -348 52 -193 140 -338
279 -461 l50 -45 -47 -62 c-104 -139 -144 -258 -145 -431 0 -128 21 -216 77
-322 l30 -57 -60 -83 c-259 -361 -407 -765 -443 -1213 l-13 -150 -57 -120
c-89 -187 -143 -374 -169 -585 -5 -46 -10 -225 -10 -398 l0 -313 25 -24 24
-25 2431 0 2431 0 24 25 25 24 0 306 c0 168 -5 349 -11 403 -22 207 -78 400
-173 597 l-53 110 -11 147 c-35 445 -186 858 -444 1216 l-60 83 30 57 c127
241 100 532 -70 756 l-45 60 46 39 c135 116 231 274 283 466 18 66 22 112 26
348 l4 272 -26 26 -25 25 -1951 0 -1951 0 -25 -25z m3816 -307 c0 -193 -9
-268 -46 -372 -109 -313 -408 -514 -733 -493 -78 6 -120 16 -240 58 -453 158
-520 172 -816 173 -281 0 -408 -23 -699 -130 -213 -79 -269 -94 -371 -101
-267 -18 -525 121 -666 357 -85 144 -109 254 -109 508 l0 172 1840 0 1840 0 0
-172z m-1555 -813 c125 -22 209 -46 394 -115 240 -89 264 -94 426 -94 149 0
207 10 335 61 l64 26 43 -49 c200 -226 163 -597 -77 -777 -120 -91 -244 -134
-407 -144 l-103 -6 0 -80 0 -80 108 6 c185 10 358 70 491 170 35 27 67 44 70
40 3 -5 27 -38 52 -74 94 -130 242 -415 254 -488 4 -23 -6 -34 -83 -93 l-87
-67 -6 34 c-3 19 -11 41 -18 49 -11 14 -241 96 -268 96 -10 0 -53 -109 -53
-136 0 -7 39 -25 88 -41 l87 -30 3 -50 3 -50 -119 -91 c-65 -51 -136 -104
-157 -120 l-39 -28 -38 79 -38 78 30 59 c17 33 30 61 30 63 0 6 -140 71 -144
66 -15 -16 -86 -172 -86 -189 0 -11 18 -56 40 -100 26 -53 40 -93 40 -119 0
-37 -3 -41 -52 -69 -96 -55 -410 -182 -449 -182 -4 0 -17 28 -28 63 l-19 62
74 76 c50 52 74 84 74 101 0 22 -74 255 -84 265 -8 9 -146 -41 -146 -52 0 -6
13 -50 29 -97 l29 -86 -69 -68 c-39 -38 -72 -80 -76 -93 -3 -14 6 -60 23 -113
23 -73 26 -91 15 -98 -26 -16 -228 -41 -371 -47 -151 -6 -297 5 -457 34 l-93
16 0 44 c0 27 10 63 25 93 l25 50 95 0 95 0 0 80 0 80 -80 0 -80 0 0 80 0 80
-80 0 -80 0 0 -110 c0 -109 -1 -112 -40 -190 -27 -53 -40 -93 -40 -120 0 -22
-4 -40 -9 -40 -16 0 -183 61 -248 90 l-63 29 0 65 0 66 70 35 c117 59 117 79
5 248 -47 70 -88 127 -91 127 -3 0 -32 -18 -65 -41 -40 -27 -59 -46 -55 -55 3
-8 23 -40 44 -72 21 -31 42 -62 46 -69 4 -8 -11 -21 -43 -37 -27 -14 -53 -31
-58 -38 -4 -7 -10 -43 -13 -79 l-5 -67 -97 62 c-53 33 -124 82 -158 109 l-61
47 3 112 3 111 84 28 c46 16 86 31 88 33 8 8 -41 146 -51 146 -27 0 -256 -83
-268 -97 -8 -10 -15 -54 -18 -111 l-5 -94 -167 128 c-153 117 -168 131 -163
155 12 74 160 358 254 488 25 36 49 69 52 74 4 5 30 -9 59 -32 71 -56 218
-127 315 -152 44 -11 128 -23 188 -26 l107 -6 0 80 0 80 -102 6 c-122 7 -198
26 -293 74 -149 74 -242 175 -293 316 -36 100 -38 250 -3 350 24 70 81 165
125 206 l25 24 49 -21 c139 -60 328 -85 472 -63 41 6 134 32 205 58 355 125
413 141 585 162 104 13 367 6 475 -14z m-1980 -2020 c287 -224 407 -307 555
-387 242 -131 551 -230 840 -270 123 -16 477 -16 600 0 217 30 450 94 650 179
237 101 386 197 770 496 247 193 276 213 283 194 27 -70 86 -470 72 -485 -2
-2 -50 -8 -107 -13 -236 -21 -523 -101 -726 -201 -59 -30 -360 -205 -669 -391
-309 -185 -567 -337 -573 -337 -6 0 -264 152 -573 337 -309 186 -609 361 -667
389 -190 95 -452 172 -652 194 -57 6 -122 13 -144 16 l-42 5 5 67 c13 182 66
450 86 434 7 -5 138 -108 292 -227z m-284 -446 c226 -23 440 -80 634 -169 50
-22 354 -199 678 -393 l587 -352 0 -137 0 -138 -1121 0 -1121 0 4 302 c5 333
16 419 79 610 44 135 118 288 139 288 10 0 64 -5 121 -11z m4142 -86 c58 -126
100 -253 128 -389 19 -94 23 -149 27 -411 l4 -303 -1121 0 -1121 0 0 138 0
137 588 353 c596 357 703 414 902 478 147 48 364 87 511 93 l36 1 46 -97z"/>
<path d="M2480 2160 l0 -80 80 0 80 0 0 80 0 80 -80 0 -80 0 0 -80z"/>
</g>
</svg>
